Coordinates
version=1
nRows=17
nColumns=36
inDegrees=yes

Units are S.I. units (second, meters, Newtons, ...)
If the header above contains a line with 'inDegrees', this indicates whether rotational values are in degrees (yes) or radians (no).

endheader
time	pelvis_tilt	pelvis_list	pelvis_rotation	pelvis_tx	pelvis_ty	pelvis_tz	hip_flexion_r	hip_adduction_r	hip_rotation_r	knee_angle_r	knee_angle_r_beta	ankle_angle_r	subtalar_angle_r	mtp_angle_r	hip_flexion_l	hip_adduction_l	hip_rotation_l	knee_angle_l	knee_angle_l_beta	ankle_angle_l	subtalar_angle_l	mtp_angle_l	lumbar_extension	lumbar_bending	lumbar_rotation	arm_flex_r	arm_add_r	arm_rot_r	elbow_flex_r	pro_sup_r	arm_flex_l	arm_add_l	arm_rot_l	elbow_flex_l	pro_sup_l
      2.97083330	    -34.71314660	     -0.41309330	      0.79278562	      0.19338897	      0.61391519	     -0.10475747	     98.09138691	    -14.77399296	     -1.93890750	     94.19462527	      1.64400635	     28.80394346	     -5.27442211	     -7.49999987	     99.98805127	    -12.97855042	     -1.52133680	     94.54719005	      1.65015976	     27.76793005	      5.18374411	     -7.49999987	    -32.97000877	     -0.66601037	      1.36759549	    104.01501527	    -18.83198623	     39.82206487	    105.26096734	     99.53138530	    108.98481494	    -15.83402202	     51.07904761	     98.33021590	     93.72868523
      2.97500000	    -34.64613517	     -0.36691904	      0.75950521	      0.19545186	      0.61697571	     -0.10381060	     97.76767065	    -14.64040630	     -1.80281777	     93.84387124	      1.63788454	     28.63176285	     -5.43569407	     -7.49999987	     99.66934799	    -12.79353014	     -1.51448041	     94.34592740	      1.64664707	     27.66089168	      4.86364134	     -7.49999987	    -32.98382500	     -0.65812908	      1.37281915	    104.05914268	    -19.12933922	     39.91285245	    105.44160008	     98.93546501	    109.06331095	    -15.59371109	     51.16491910	     98.13413404	     93.12900625
      2.97916670	    -34.39977018	     -0.26372514	      0.74069453	      0.19516052	      0.61959334	     -0.10413294	     97.26902133	    -14.53186664	     -1.65089438	     93.48652674	      1.63164770	     28.39204723	     -5.57189433	     -7.49999987	     99.07266169	    -12.61116428	     -1.58069391	     94.10757810	      1.64248709	     27.59025511	      4.64677422	     -7.49999987	    -33.18664977	     -0.79444052	      1.52223374	    104.20816294	    -19.61973278	     39.85681854	    105.64382552	    100.23805859	    109.29113125	    -15.02482864	     50.88818974	     97.07267182	     94.34839333
      2.98333330	    -34.03030520	     -0.20780359	      0.69823969	      0.19633600	      0.62432225	     -0.10331678	     96.61400108	    -14.35766138	     -1.66643152	     93.15907320	      1.62593256	     28.12740416	     -6.23084351	     -7.49999987	     98.21705384	    -12.39033460	     -1.52879336	     93.64996558	      1.63450024	     27.23798697	      3.97829144	     -7.49999987	    -33.52063859	     -0.83481776	      1.29402952	    104.34299673	    -19.26019972	     39.85544504	    104.75019765	     97.60092767	    109.42833461	    -14.92142260	     50.68514501	     96.24007482	     92.18258826
      2.98750000	    -34.02875897	     -0.07459356	      0.64131599	      0.19662357	      0.62576853	     -0.10216565	     96.25789585	    -14.05207100	     -1.52768744	     92.65081815	      1.61706183	     27.70830964	     -6.54509785	     -7.49999987	     97.73738477	    -12.46633295	     -1.70630048	     93.18128323	      1.62632019	     27.39518207	      4.46277648	     -7.49999987	    -33.55367685	     -0.95294193	      0.80183249	    104.18490422	    -18.97853496	     39.81158708	    105.61597194	    100.69999435	    109.40332225	    -15.78568966	     50.54991617	     97.62305954	     94.49196107
      2.99166670	    -33.88565830	     -0.02066933	      0.69705697	      0.19864105	      0.63079243	     -0.10116770	     95.62086105	    -13.77643114	     -1.47775240	     92.07226421	      1.60696416	     27.38257036	     -7.05357443	     -7.49999987	     97.02444931	    -12.38708959	     -1.78142050	     92.52274285	      1.61482650	     27.07882904	      4.35310198	     -7.49999987	    -33.73713484	     -1.09097132	      0.61094771	    103.97541947	    -19.15547680	     39.65325706	    105.96261992	     99.39527475	    109.41091124	    -15.80967914	     50.55269020	     97.97176562	     93.48911833
      2.99583330	    -33.75185449	      0.06248802	      0.62584857	      0.20016302	      0.63383876	     -0.10321902	     95.01340538	    -13.48354512	     -1.42932469	     91.54176923	      1.59770528	     27.11243881	     -7.65611737	     -7.49999987	     96.40088893	    -12.29868491	     -1.88360552	     92.04195171	      1.60643511	     26.85228672	      4.13151211	     -7.49999987	    -33.96076464	     -1.26132530	      0.41289385	    103.74651156	    -19.24341890	     39.28960041	    106.44647079	     99.23350699	    109.32347971	    -15.98361743	     50.11625978	     98.23760371	     93.09607372
      3.00000000	    -33.55062403	      0.12215042	      0.53825135	      0.20328711	      0.63670600	     -0.10395862	     94.40999313	    -13.29572808	     -1.35648769	     91.07808322	      1.58961243	     26.79615652	     -8.01401093	     -7.49999987	     95.65820055	    -12.24732575	     -1.99769911	     91.55026508	      1.59785356	     26.79642229	      4.10251473	     -7.49999987	    -34.05665550	     -1.37993699	      0.26986536	    103.35659394	    -19.49691522	     39.03365810	    107.02968098	     98.86896315	    108.87265269	    -16.19273706	     49.51492862	     98.51001759	     92.58456532
      3.00416670	    -33.31999143	      0.08454618	      0.46333026	      0.20567272	      0.63897663	     -0.10357285	     93.77414950	    -13.04905768	     -1.39026285	     90.83483803	      1.58536700	     26.82540596	     -8.41090077	     -7.49999987	     95.02363088	    -12.14986176	     -1.92041215	     91.24814442	      1.59258056	     26.73809141	      3.75426889	     -7.49999987	    -33.91514030	     -1.38483680	      0.17173431	    102.89223589	    -19.52072706	     38.81749559	    106.29746329	     98.15572674	    108.24030538	    -16.21221769	     49.17857012	     97.81529650	     91.73980913
      3.00833330	    -33.21141733	      0.10241473	      0.41588834	      0.20800883	      0.64340280	     -0.10299787	     93.06054939	    -12.75489769	     -1.37891525	     90.27611153	      1.57561538	     26.37453125	     -9.23512702	     -7.49999987	     94.30830516	    -12.12632458	     -1.99279084	     90.74506295	      1.58380013	     26.68321860	      3.69966448	     -7.49999987	    -33.91881403	     -1.42505335	      0.44904191	    102.04986729	    -20.31258783	     37.88425583	    108.38572796	    101.45739397	    106.92764210	    -16.10418784	     47.35998735	     99.23942088	     94.41003745
      3.01250000	    -32.78265970	      0.17317437	      0.39926250	      0.21157602	      0.64919768	     -0.10461559	     91.93341189	    -12.51206522	     -1.20669120	     89.65061699	      1.56469844	     26.22096755	     -9.79173465	     -7.49999987	     93.16479564	    -12.00564969	     -2.13479688	     90.20150537	      1.57431326	     26.51730651	      3.28867110	     -7.49999987	    -34.02456478	     -1.30376320	      0.57080709	    101.31987668	    -20.64610330	     37.81018951	    108.93504422	    101.01945286	    105.74539924	    -16.06463141	     46.81642254	    100.00284976	     93.98111441
      3.01666670	    -32.31853061	      0.31720064	      0.32814636	      0.21147566	      0.65403563	     -0.10377913	     91.02437942	    -12.25545392	     -1.06351243	     89.19484344	      1.55674369	     25.85954777	    -10.61941836	     -7.49999987	     92.06903810	    -11.85903638	     -2.35515264	     89.65785837	      1.56482483	     26.38245192	      2.88517369	     -7.49999987	    -34.23303979	     -1.37244716	      0.61714899	    100.74643780	    -20.89515705	     37.65881331	    109.31987705	    100.82964373	    104.88005586	    -16.11865497	     46.27857616	    100.18074708	     93.55755561
      3.02083330	    -31.87292148	      0.40991653	      0.21010464	      0.21186668	      0.65711178	     -0.10447893	     90.21717260	    -12.03202444	     -0.99120034	     88.74230471	      1.54884540	     25.34755635	    -11.42142916	     -7.49999987	     91.10653973	    -11.70607408	     -2.40176894	     89.08098684	      1.55475652	     26.13816057	      2.27690748	     -7.49999987	    -34.43370718	     -1.42818870	      0.72751339	    100.26857994	    -21.31221798	     37.24659950	    109.88830523	    100.64390793	    103.86974896	    -16.04597183	     45.11510384	    100.62087920	     93.30078009
      3.02500000	    -31.42289523	      0.37522125	      0.14670183	      0.21475907	      0.65961299	     -0.10229468	     89.53392218	    -11.78661779	     -1.06430995	     88.60178149	      1.54639281	     25.26933778	    -11.96062644	     -7.49999987	     90.26214138	    -11.60672319	     -2.23273628	     88.69326202	      1.54798945	     26.05277163	      1.86386580	     -7.49999987	    -34.30984530	     -1.41087408	      0.67292735	     99.56713157	    -21.23607198	     36.95128663	    108.91621452	     99.92160630	    102.90973697	    -16.07063475	     44.51316348	     99.57255400	     92.27702652
      3.02916670	    -31.28213932	      0.49154201	      0.02205431	      0.21921003	      0.66365004	     -0.10404012	     88.89223420	    -11.55950025	     -1.04165623	     88.10533227	      1.53772814	     24.48206668	    -12.85489305	     -7.49999987	     89.40436188	    -11.48303516	     -2.26360497	     88.09428650	      1.53753535	     26.19714427	      1.84825143	     -7.49999987	    -34.34998410	     -1.29207266	      0.92390949	     99.33153834	    -21.83511497	     36.48599067	    110.49113851	    101.72168961	    101.03145125	    -16.35454288	     41.26755919	    101.33314704	     94.87901147
      3.03333330	    -31.06390833	      0.49805542	      0.02837317	      0.22133525	      0.66582883	     -0.10197822	     88.19299992	    -11.40296601	     -1.02006989	     87.80903312	      1.53255674	     24.32227969	    -13.35794877	     -7.49999987	     88.73230107	    -11.42468461	     -2.18844585	     87.77875857	      1.53202835	     26.08387015	      1.56336283	     -7.49999987	    -34.13720111	     -1.21345950	      1.09678168	     98.49243344	    -22.21562425	     35.68276483	    111.21528162	    101.62754767	     99.45454284	    -16.24570193	     39.28517542	    101.81457757	     94.70096366
      3.03750000	    -30.84816435	      0.57249355	      0.01602305	      0.22238564	      0.66931311	     -0.10274756	     87.59676555	    -11.34518726	     -0.96186370	     87.52451570	      1.52759098	     23.90924074	    -13.75272913	     -7.49999987	     88.11732243	    -11.28931530	     -2.10251098	     87.44935320	      1.52627914	     26.12515204	      1.62905020	     -7.49999987	    -34.03465624	     -1.18396474	      1.18187555	     97.94039432	    -22.80302969	     35.09791472	    112.03038297	    101.02176429	     98.36164055	    -16.48350842	     38.12864174	    102.69772766	     94.01687773
